# Blender v2.79 (sub 0) OBJ File: 'colab.blend'
# www.blender.org
mtllib path.mtl
o path_Cube.003
v 14.151355 -0.021475 0.206490
v 14.153109 0.021951 0.229554
v 14.160039 -0.022053 -0.279516
v 14.137080 0.021485 -0.306128
v 14.635660 -0.022421 0.198690
v 14.635822 0.022821 0.215038
v 14.638821 -0.022952 -0.294109
v 14.646196 0.021681 -0.293141
v 13.669574 -0.020392 0.296247
v 13.676296 0.020868 0.318379
v 13.577918 -0.020970 -0.155640
v 13.549727 0.020403 -0.176629
v 14.116219 -0.021338 0.188869
v 14.119929 0.021738 0.204792
v 14.017696 -0.021869 -0.268448
v 14.025106 0.020598 -0.269105
v 13.166191 -0.005921 0.607052
v 13.173949 0.039671 0.628842
v 13.040156 -0.006499 0.111756
v 13.011006 0.039206 0.092121
v 13.655510 -0.006866 0.465561
v 13.659966 0.040541 0.481291
v 13.522360 -0.007398 -0.034836
v 13.529731 0.039401 -0.035841
v 12.579626 -0.017143 0.617278
v 12.581379 0.017619 0.640342
v 12.588310 -0.017721 0.231272
v 12.565351 0.017154 0.204661
v 12.963930 -0.018089 0.609478
v 12.964092 0.018489 0.625826
v 12.967093 -0.018620 0.216679
v 12.974468 0.017349 0.217648
v 11.937018 -0.021475 0.559920
v 11.933144 0.021951 0.582724
v 12.062963 -0.022053 0.090436
v 12.047120 0.021485 0.059063
v 12.408838 -0.022421 0.669457
v 12.405043 0.022821 0.685360
v 12.531065 -0.022952 0.192046
v 12.537988 0.021681 0.194770
v 11.414364 -0.019309 0.374790
v 11.409535 0.019785 0.397411
v 11.545763 -0.019887 -0.041036
v 11.531250 0.019320 -0.073045
v 11.833209 -0.020255 0.489895
v 11.828751 0.020655 0.505625
v 11.961228 -0.020786 0.065995
v 11.968031 0.019515 0.069006
v 10.794788 -0.021475 0.035414
v 10.785419 0.021951 0.056562
v 11.032424 -0.022053 -0.388622
v 11.024792 0.021486 -0.422929
v 11.225126 -0.022420 0.257724
v 11.217533 0.022821 0.272203
v 11.461111 -0.022952 -0.174910
v 11.467151 0.021681 -0.170566
v 10.327890 -0.020392 -0.113501
v 10.323339 0.020868 -0.090823
v 10.460986 -0.020970 -0.554962
v 10.446084 0.020403 -0.586792
v 10.772174 -0.021337 0.003265
v 10.767907 0.021738 0.019047
v 10.901790 -0.021869 -0.446230
v 10.908628 0.020598 -0.443302
v 9.737359 -0.005921 -0.077907
v 9.733882 0.039671 -0.055039
v 9.860711 -0.006499 -0.573878
v 9.844323 0.039206 -0.604969
v 10.235378 -0.006866 0.029001
v 10.231860 0.040541 0.044967
v 10.354877 -0.007398 -0.474831
v 10.361845 0.039401 -0.472228
v 9.215787 -0.017143 -0.346470
v 9.206418 0.017619 -0.325322
v 9.406101 -0.017721 -0.682411
v 9.398468 0.017154 -0.716719
v 9.558031 -0.018089 -0.171482
v 9.550436 0.018489 -0.157004
v 9.746694 -0.018620 -0.516021
v 9.752732 0.017349 -0.511677
v 8.676826 -0.021475 -0.701091
v 8.662622 0.021951 -0.682836
v 9.009945 -0.022053 -1.055083
v 9.010834 0.021486 -1.090218
v 9.040640 -0.022420 -0.381322
v 9.029772 0.022821 -0.369109
v 9.374234 -0.022952 -0.744056
v 9.379044 0.021681 -0.738381
v 8.304003 -0.019309 -1.111510
v 8.289045 0.019785 -1.093866
v 8.616533 -0.019887 -1.415649
v 8.618896 0.019320 -1.450716
v 8.618513 -0.020255 -0.811903
v 8.607141 0.020655 -0.800156
v 8.931889 -0.020786 -1.124757
v 8.936456 0.019515 -1.118885
v 7.801965 -0.021475 -1.378229
v 7.792596 0.021951 -1.357081
v 8.039601 -0.022053 -1.802265
v 8.031969 0.021486 -1.836572
v 8.232304 -0.022420 -1.155919
v 8.224710 0.022821 -1.141440
v 8.468288 -0.022952 -1.588553
v 8.474327 0.021681 -1.584209
v 7.335067 -0.020392 -1.527144
v 7.330516 0.020868 -1.504466
v 7.468163 -0.020970 -1.968604
v 7.453261 0.020403 -2.000435
v 7.779351 -0.021337 -1.410378
v 7.775084 0.021738 -1.394596
v 7.908967 -0.021869 -1.859873
v 7.915805 0.020598 -1.856945
v 6.804683 -0.005921 -1.386685
v 6.810436 0.039671 -1.364281
v 6.724032 -0.006499 -1.891361
v 6.696781 0.039206 -1.913556
v 7.304807 -0.006866 -1.483270
v 7.307820 0.040541 -1.467201
v 7.217532 -0.007398 -1.993671
v 7.224964 0.039401 -1.994004
v 5.484468 -0.017143 -1.392960
v 5.472375 0.017619 -1.412678
v 5.653015 -0.017721 -1.045587
v 5.685593 0.017154 -1.032397
v 5.146135 -0.018089 -1.210524
v 5.138526 0.018489 -1.224994
v 5.322699 -0.018620 -0.859630
v 5.315695 0.017349 -0.857124
v 6.056109 -0.021475 -1.701019
v 6.049143 0.021951 -1.723075
v 6.158457 -0.022053 -1.225832
v 6.186879 0.021486 -1.205156
v 5.586337 -0.022420 -1.583007
v 5.582452 0.022821 -1.598887
v 5.695613 -0.022952 -1.102466
v 5.688210 0.021681 -1.101728
v 6.605626 -0.019309 -1.774993
v 6.599591 0.019785 -1.797322
v 6.678618 -0.019887 -1.345053
v 6.706147 0.019320 -1.323203
v 6.180440 -0.020255 -1.686127
v 6.177223 0.020655 -1.702156
v 6.260126 -0.020786 -1.250545
v 6.252699 0.019515 -1.250118
v 4.851057 -0.021475 -0.494937
v 4.864239 0.021951 -0.475930
v 4.612660 -0.022053 -0.918546
v 4.579393 0.021485 -0.929884
v 5.264859 -0.022421 -0.746691
v 5.273270 0.022821 -0.732672
v 5.018262 -0.022952 -1.173365
v 5.025114 0.021681 -1.176261
v 4.480897 -0.020392 -0.173766
v 4.497892 0.020868 -0.158077
v 4.173212 -0.020970 -0.517179
v 4.138277 0.020403 -0.521021
v 4.811834 -0.021338 -0.492360
v 4.823091 0.021738 -0.480502
v 4.495480 -0.021869 -0.836983
v 4.501539 0.020598 -0.841298
v 3.938225 -0.005921 0.221859
v 3.950101 0.039671 0.241707
v 3.717601 -0.006499 -0.239149
v 3.685169 0.039206 -0.252693
v 4.390343 -0.006866 -0.012750
v 4.397795 0.040541 0.001802
v 4.161742 -0.007398 -0.477366
v 4.168774 0.039401 -0.479796
v 3.339890 -0.017143 0.317945
v 3.346112 0.017619 0.340223
v 3.273046 -0.017721 -0.062328
v 3.245335 0.017154 -0.083945
v 3.715276 -0.018089 0.235267
v 3.718627 0.018489 0.251269
v 3.641690 -0.018620 -0.150591
v 3.649114 0.017349 -0.151081
v 2.698450 -0.021475 0.387149
v 2.699101 0.021951 0.410270
v 2.730313 -0.022053 -0.097890
v 2.708649 0.021485 -0.125566
v 3.182575 -0.022421 0.402463
v 3.181957 0.022821 0.418801
v 3.209245 -0.022952 -0.089623
v 3.216565 0.021681 -0.088304
v 2.149709 -0.019309 0.307619
v 2.149390 0.019785 0.330748
v 2.197397 -0.019887 -0.125858
v 2.176914 0.019320 -0.154418
v 2.582967 -0.020255 0.338738
v 2.581665 0.020655 0.355035
v 2.625764 -0.020786 -0.101999
v 2.633024 0.019515 -0.100374
vn -0.9716 -0.2366 0.0072
vn -0.0018 -0.2795 -0.9601
vn 0.9962 -0.0861 0.0136
vn 0.0210 -0.4065 0.9134
vn -0.0019 -1.0000 0.0011
vn -0.0011 1.0000 -0.0015
vn -0.9439 -0.2482 0.2178
vn -0.2095 -0.2928 -0.9329
vn 0.9751 -0.0907 -0.2023
vn 0.2182 -0.4237 0.8791
vn -0.0017 -1.0000 0.0016
vn -0.0015 1.0000 -0.0013
vn -0.9380 -0.2260 0.2629
vn -0.2551 -0.2674 -0.9292
vn 0.9649 -0.0821 -0.2496
vn 0.2616 -0.3905 0.8827
vn -0.0015 -1.0000 0.0015
vn -0.0014 1.0000 -0.0011
vn -0.9567 -0.2909 0.0089
vn -0.0022 -0.3408 -0.9401
vn 0.9941 -0.1073 0.0170
vn 0.0254 -0.4839 0.8747
vn -0.0024 -1.0000 0.0014
vn -0.0013 1.0000 -0.0019
vn -0.9445 -0.2366 -0.2279
vn 0.2305 -0.2795 -0.9321
vn 0.9633 -0.0862 0.2541
vn -0.2004 -0.4065 0.8914
vn -0.0021 -1.0000 0.0006
vn -0.0007 1.0000 -0.0017
vn -0.9283 -0.2611 -0.2648
vn 0.2667 -0.3073 -0.9135
vn 0.9506 -0.0956 0.2955
vn -0.2310 -0.4423 0.8666
vn -0.0024 -1.0000 0.0006
vn -0.0007 1.0000 -0.0020
vn -0.8593 -0.2366 -0.4534
vn 0.4528 -0.2796 -0.8467
vn 0.8711 -0.0862 0.4834
vn -0.4137 -0.4065 0.8146
vn -0.0022 -1.0000 0.0001
vn -0.0002 1.0000 -0.0019
vn -0.9346 -0.2482 -0.2548
vn 0.2569 -0.2928 -0.9210
vn 0.9548 -0.0907 0.2832
vn -0.2238 -0.4237 0.8777
vn -0.0022 -1.0000 0.0006
vn -0.0007 1.0000 -0.0019
vn -0.9507 -0.2260 -0.2123
vn 0.2150 -0.2674 -0.9393
vn 0.9681 -0.0821 0.2367
vn -0.1873 -0.3905 0.9014
vn -0.0020 -1.0000 0.0006
vn -0.8470 -0.2909 -0.4449
vn 0.4429 -0.3408 -0.8293
vn 0.8677 -0.1073 0.4854
vn -0.3916 -0.4839 0.7826
vn -0.0028 -1.0000 0.0001
vn -0.0003 1.0000 -0.0023
vn -0.7242 -0.2366 -0.6477
vn 0.6441 -0.2795 -0.7120
vn 0.7284 -0.0862 0.6797
vn -0.5984 -0.4065 0.6904
vn -0.0021 -1.0000 -0.0004
vn 0.0002 1.0000 -0.0019
vn -0.6925 -0.2611 -0.6726
vn 0.6672 -0.3073 -0.6785
vn 0.6976 -0.0956 0.7101
vn -0.6136 -0.4422 0.6542
vn -0.0024 -1.0000 -0.0006
vn 0.0003 1.0000 -0.0020
vn 0.4528 -0.2795 -0.8467
vn -0.9580 -0.2260 0.1768
vn -0.1699 -0.2674 -0.9485
vn 0.9835 -0.0821 -0.1612
vn 0.1805 -0.3905 0.9027
vn -0.0016 -1.0000 0.0014
vn -0.0013 1.0000 -0.0013
vn 0.8471 -0.2909 -0.4448
vn 0.4313 -0.3408 0.8354
vn -0.8921 -0.1073 0.4388
vn -0.4221 -0.4839 -0.7666
vn 0.0015 -1.0000 -0.0023
vn 0.0021 1.0000 0.0011
vn 0.9443 -0.2366 -0.2285
vn 0.2206 -0.2795 0.9344
vn -0.9731 -0.0862 0.2139
vn -0.2287 -0.4065 -0.8846
vn 0.0016 -1.0000 -0.0015
vn 0.0014 1.0000 0.0012
vn 0.9468 -0.2610 -0.1883
vn 0.1799 -0.3073 0.9345
vn -0.9806 -0.0956 0.1712
vn -0.1903 -0.4422 -0.8765
vn 0.0018 -1.0000 -0.0016
vn 0.0015 1.0000 0.0014
vn -0.8344 -0.2366 0.4978
vn -0.4873 -0.2795 -0.8273
vn 0.8662 -0.0862 -0.4923
vn 0.4803 -0.4065 0.7772
vn -0.0011 -1.0000 0.0019
vn -0.0017 1.0000 -0.0008
vn -0.7040 -0.2482 0.6654
vn -0.6527 -0.2928 -0.6987
vn 0.7388 -0.0907 -0.6678
vn 0.6330 -0.4237 0.6480
vn -0.0007 -1.0000 0.0022
vn -0.0019 1.0000 -0.0004
vn -0.8683 -0.2260 0.4415
vn -0.4322 -0.2674 -0.8612
vn 0.8973 -0.0821 -0.4338
vn 0.4294 -0.3905 0.8143
vn -0.0011 -1.0000 0.0018
vn -0.0016 1.0000 -0.0009
vn -0.9366 -0.2909 0.1955
vn -0.1857 -0.3408 -0.9216
vn 0.9783 -0.1074 -0.1774
vn 0.1957 -0.4839 0.8529
vn -0.0021 -1.0000 0.0018
vn -0.0017 1.0000 -0.0016
vn -0.9708 -0.2366 -0.0391
vn 0.0441 -0.2795 -0.9591
vn 0.9944 -0.0862 0.0611
vn -0.0226 -0.4065 0.9134
vn -0.0019 -1.0000 0.0010
vn -0.0010 1.0000 -0.0016
vn -0.9621 -0.2610 -0.0785
vn 0.0833 -0.3073 -0.9480
vn 0.9899 -0.0956 0.1042
vn -0.0573 -0.4423 0.8951
vn -0.0022 -1.0000 0.0010
vn -0.0010 1.0000 -0.0018
usemtl Material.004
s off
f 1//1 2//1 4//1 3//1
f 3//2 4//2 8//2 7//2
f 7//3 8//3 6//3 5//3
f 5//4 6//4 2//4 1//4
f 3//5 7//5 5//5 1//5
f 8//6 4//6 2//6 6//6
f 9//7 10//7 12//7 11//7
f 11//8 12//8 16//8 15//8
f 15//9 16//9 14//9 13//9
f 13//10 14//10 10//10 9//10
f 11//11 15//11 13//11 9//11
f 16//12 12//12 10//12 14//12
f 17//13 18//13 20//13 19//13
f 19//14 20//14 24//14 23//14
f 23//15 24//15 22//15 21//15
f 21//16 22//16 18//16 17//16
f 19//17 23//17 21//17 17//17
f 24//18 20//18 18//18 22//18
f 25//19 26//19 28//19 27//19
f 27//20 28//20 32//20 31//20
f 31//21 32//21 30//21 29//21
f 29//22 30//22 26//22 25//22
f 27//23 31//23 29//23 25//23
f 32//24 28//24 26//24 30//24
f 33//25 34//25 36//25 35//25
f 35//26 36//26 40//26 39//26
f 39//27 40//27 38//27 37//27
f 37//28 38//28 34//28 33//28
f 35//29 39//29 37//29 33//29
f 40//30 36//30 34//30 38//30
f 41//31 42//31 44//31 43//31
f 43//32 44//32 48//32 47//32
f 47//33 48//33 46//33 45//33
f 45//34 46//34 42//34 41//34
f 43//35 47//35 45//35 41//35
f 48//36 44//36 42//36 46//36
f 49//37 50//37 52//37 51//37
f 51//38 52//38 56//38 55//38
f 55//39 56//39 54//39 53//39
f 53//40 54//40 50//40 49//40
f 51//41 55//41 53//41 49//41
f 56//42 52//42 50//42 54//42
f 57//43 58//43 60//43 59//43
f 59//44 60//44 64//44 63//44
f 63//45 64//45 62//45 61//45
f 61//46 62//46 58//46 57//46
f 59//47 63//47 61//47 57//47
f 64//48 60//48 58//48 62//48
f 65//49 66//49 68//49 67//49
f 67//50 68//50 72//50 71//50
f 71//51 72//51 70//51 69//51
f 69//52 70//52 66//52 65//52
f 67//53 71//53 69//53 65//53
f 72//30 68//30 66//30 70//30
f 73//54 74//54 76//54 75//54
f 75//55 76//55 80//55 79//55
f 79//56 80//56 78//56 77//56
f 77//57 78//57 74//57 73//57
f 75//58 79//58 77//58 73//58
f 80//59 76//59 74//59 78//59
f 81//60 82//60 84//60 83//60
f 83//61 84//61 88//61 87//61
f 87//62 88//62 86//62 85//62
f 85//63 86//63 82//63 81//63
f 83//64 87//64 85//64 81//64
f 88//65 84//65 82//65 86//65
f 89//66 90//66 92//66 91//66
f 91//67 92//67 96//67 95//67
f 95//68 96//68 94//68 93//68
f 93//69 94//69 90//69 89//69
f 91//70 95//70 93//70 89//70
f 96//71 92//71 90//71 94//71
f 97//37 98//37 100//37 99//37
f 99//72 100//72 104//72 103//72
f 103//39 104//39 102//39 101//39
f 101//40 102//40 98//40 97//40
f 99//41 103//41 101//41 97//41
f 104//42 100//42 98//42 102//42
f 105//43 106//43 108//43 107//43
f 107//44 108//44 112//44 111//44
f 111//45 112//45 110//45 109//45
f 109//46 110//46 106//46 105//46
f 107//47 111//47 109//47 105//47
f 112//48 108//48 106//48 110//48
f 113//73 114//73 116//73 115//73
f 115//74 116//74 120//74 119//74
f 119//75 120//75 118//75 117//75
f 117//76 118//76 114//76 113//76
f 115//77 119//77 117//77 113//77
f 120//78 116//78 114//78 118//78
f 121//79 122//79 124//79 123//79
f 123//80 124//80 128//80 127//80
f 127//81 128//81 126//81 125//81
f 125//82 126//82 122//82 121//82
f 123//83 127//83 125//83 121//83
f 128//84 124//84 122//84 126//84
f 129//85 130//85 132//85 131//85
f 131//86 132//86 136//86 135//86
f 135//87 136//87 134//87 133//87
f 133//88 134//88 130//88 129//88
f 131//89 135//89 133//89 129//89
f 136//90 132//90 130//90 134//90
f 137//91 138//91 140//91 139//91
f 139//92 140//92 144//92 143//92
f 143//93 144//93 142//93 141//93
f 141//94 142//94 138//94 137//94
f 139//95 143//95 141//95 137//95
f 144//96 140//96 138//96 142//96
f 145//97 146//97 148//97 147//97
f 147//98 148//98 152//98 151//98
f 151//99 152//99 150//99 149//99
f 149//100 150//100 146//100 145//100
f 147//101 151//101 149//101 145//101
f 152//102 148//102 146//102 150//102
f 153//103 154//103 156//103 155//103
f 155//104 156//104 160//104 159//104
f 159//105 160//105 158//105 157//105
f 157//106 158//106 154//106 153//106
f 155//107 159//107 157//107 153//107
f 160//108 156//108 154//108 158//108
f 161//109 162//109 164//109 163//109
f 163//110 164//110 168//110 167//110
f 167//111 168//111 166//111 165//111
f 165//112 166//112 162//112 161//112
f 163//113 167//113 165//113 161//113
f 168//114 164//114 162//114 166//114
f 169//115 170//115 172//115 171//115
f 171//116 172//116 176//116 175//116
f 175//117 176//117 174//117 173//117
f 173//118 174//118 170//118 169//118
f 171//119 175//119 173//119 169//119
f 176//120 172//120 170//120 174//120
f 177//121 178//121 180//121 179//121
f 179//122 180//122 184//122 183//122
f 183//123 184//123 182//123 181//123
f 181//124 182//124 178//124 177//124
f 179//125 183//125 181//125 177//125
f 184//126 180//126 178//126 182//126
f 185//127 186//127 188//127 187//127
f 187//128 188//128 192//128 191//128
f 191//129 192//129 190//129 189//129
f 189//130 190//130 186//130 185//130
f 187//131 191//131 189//131 185//131
f 192//132 188//132 186//132 190//132
