# Blender v2.79 (sub 0) OBJ File: 'colab.blend'
# www.blender.org
mtllib pathbase.mtl
o pathBase_Plane.002
v 6.180776 -0.204123 -1.985000
v 8.112269 -0.204123 -2.046560
v 6.442630 -0.204123 -1.203039
v 7.664588 -0.204123 -1.229665
v 9.449673 -0.204123 -0.827691
v 9.107130 -0.204123 -0.202645
v 11.404526 -0.204123 -0.348783
v 11.295995 -0.204123 0.435303
v 3.701316 -0.204123 -0.412788
v 3.983255 -0.204123 0.388720
v 5.453573 -0.204123 -1.624567
v 5.812177 -0.204123 -1.032989
v 3.432264 -0.204123 -0.316397
v 3.460939 -0.204123 0.532768
v 1.992963 -0.204123 -0.316397
v 2.021638 -0.204123 0.532768
v 12.661911 -0.204123 0.139440
v 12.772693 -0.204123 0.923211
v 13.920765 -0.204123 -0.425625
v 13.821926 -0.204123 0.359742
v 14.730572 -0.204123 -0.432202
v 14.631733 -0.204123 0.353165
v 6.442630 0.008726 -1.203039
v 6.180776 0.008726 -1.985000
v 8.112269 0.008726 -2.046560
v 7.664588 0.008726 -1.229665
v 9.449673 0.008726 -0.827691
v 9.107130 0.008726 -0.202645
v 11.404526 0.008726 -0.348783
v 11.295995 0.008726 0.435303
v 3.983255 0.008726 0.388720
v 3.701316 0.008726 -0.412788
v 5.453573 0.008726 -1.624567
v 5.812177 0.008726 -1.032989
v 3.460939 0.008726 0.532768
v 3.432264 0.008726 -0.316397
v 2.021638 0.008726 0.532768
v 1.992963 0.008726 -0.316397
v 12.661911 0.008726 0.139440
v 12.772693 0.008726 0.923211
v 13.920765 0.008726 -0.425625
v 13.821926 0.008726 0.359742
v 14.730572 0.008726 -0.432202
v 14.631733 0.008726 0.353165
vn 0.0000 -1.0000 0.0000
vn 0.0000 1.0000 0.0000
vn 0.9922 0.0000 0.1249
vn 0.6736 0.0000 -0.7391
vn 0.0000 0.0000 1.0000
vn 0.2604 0.0000 0.9655
vn 0.0081 0.0000 1.0000
vn -0.0081 0.0000 -1.0000
vn -0.2798 0.0000 0.9601
vn -0.3137 0.0000 0.9495
vn -0.0319 0.0000 -0.9995
vn 0.2379 0.0000 -0.9713
vn 0.3620 0.0000 -0.9322
vn -0.3373 0.0000 -0.9414
vn 0.0218 0.0000 0.9998
vn 0.2659 0.0000 0.9640
vn -0.4441 0.0000 -0.8960
vn 0.4731 0.0000 0.8810
vn -0.9994 0.0000 0.0337
vn 0.6137 0.0000 0.7895
vn -0.4095 0.0000 -0.9123
vn -0.5800 0.0000 0.8146
vn 0.0000 0.0000 -1.0000
vn -0.5688 0.0000 -0.8225
usemtl None
s off
f 1//1 2//1 4//1 3//1
f 4//1 2//1 5//1 6//1
f 6//1 5//1 7//1 8//1
f 11//1 12//1 10//1 9//1
f 1//1 3//1 12//1 11//1
f 9//1 10//1 14//1 13//1
f 13//1 14//1 16//1 15//1
f 8//1 7//1 17//1 18//1
f 18//1 17//1 19//1 20//1
f 20//1 19//1 21//1 22//1
f 24//2 23//2 26//2 25//2
f 26//2 28//2 27//2 25//2
f 28//2 30//2 29//2 27//2
f 33//2 32//2 31//2 34//2
f 24//2 33//2 34//2 23//2
f 32//2 36//2 35//2 31//2
f 36//2 38//2 37//2 35//2
f 30//2 40//2 39//2 29//2
f 40//2 42//2 41//2 39//2
f 42//2 44//2 43//2 41//2
f 21//3 43//3 44//3 22//3
f 2//4 25//4 27//4 5//4
f 14//5 35//5 37//5 16//5
f 3//6 23//6 34//6 12//6
f 22//7 44//7 42//7 20//7
f 19//8 41//8 43//8 21//8
f 8//9 30//9 28//9 6//9
f 18//10 40//10 30//10 8//10
f 1//11 24//11 25//11 2//11
f 5//12 27//12 29//12 7//12
f 7//13 29//13 39//13 17//13
f 13//14 36//14 32//14 9//14
f 4//15 26//15 23//15 3//15
f 10//16 31//16 35//16 14//16
f 11//17 33//17 24//17 1//17
f 20//18 42//18 40//18 18//18
f 16//19 37//19 38//19 15//19
f 12//20 34//20 31//20 10//20
f 17//21 39//21 41//21 19//21
f 6//22 28//22 26//22 4//22
f 15//23 38//23 36//23 13//23
f 9//24 32//24 33//24 11//24
